<?xml version="1.0" encoding="utf-8"?>
<!-- Generator: Adobe Illustrator 16.0.0, SVG Export Plug-In . SVG Version: 6.00 Build 0)  -->
<!DOCTYPE svg PUBLIC "-//W3C//DTD SVG 1.1//EN" "http://www.w3.org/Graphics/SVG/1.1/DTD/svg11.dtd">
<svg version="1.1" id="Layer_1" xmlns="http://www.w3.org/2000/svg" xmlns:xlink="http://www.w3.org/1999/xlink" x="0px" y="0px"
	 width="1119.571px" height="309.676px" viewBox="0 0 1119.571 309.676" enable-background="new 0 0 1119.571 309.676"
	 xml:space="preserve">
<g>
	<g>
		<path fill="#2594DA" d="M294.448,118.687h-30.409v96.042h14.858v-40.056h18.591c14.155,0,28.44-9.015,28.44-29.157
			C325.928,128.716,314.16,118.687,294.448,118.687z M278.897,132.292h15.015c11.649,0,16.622,4.222,16.622,14.122
			c0,9.863-5.436,14.655-16.622,14.655h-15.015V132.292z"/>
		<polygon fill="#2594DA" points="394.881,157.313 360.921,157.313 360.921,118.687 346.063,118.687 346.063,214.729 
			360.921,214.729 360.921,170.918 394.881,170.918 394.881,214.729 409.739,214.729 409.739,118.687 394.881,118.687 		"/>
		<path fill="#2594DA" d="M459.593,118.687l-30.072,93.517l14.512,5.278l8.899-28.146H483.9l8.714,28.148l14.523-5.281
			l-30.072-93.517H459.593z M479.614,175.729h-22.572l11.288-36.758L479.614,175.729z"/>
		<polygon fill="#2594DA" points="577.17,174.193 577.971,192.25 544.121,118.687 526.92,118.687 526.92,214.729 541.778,214.729 
			541.775,159.4 540.971,141.16 574.825,214.729 592.025,214.729 592.025,118.687 577.167,118.687 		"/>
		<polygon fill="#2594DA" points="612.161,132.292 637.913,132.292 637.913,214.729 652.77,214.729 652.77,132.292 677.982,132.292 
			677.982,118.687 612.161,118.687 		"/>
		<path fill="#2594DA" d="M732.64,117.077c-8.099,0-34.521,3.584-34.521,49.72c0,45.969,26.423,49.542,34.521,49.542
			c32.03,0,34.519-37.921,34.519-49.542C767.159,120.662,740.739,117.077,732.64,117.077z M732.64,202.197
			c-16.642,0-19.128-22.181-19.128-35.4c0-16.229,3.318-35.576,19.128-35.576c15.807,0,19.125,19.347,19.125,35.576
			C751.765,180.017,749.282,202.197,732.64,202.197z"/>
		<polygon fill="#2594DA" points="840.882,118.687 825.034,156.793 809.184,118.687 791.104,118.687 787.236,214.729 
			802.821,214.729 805.015,143.626 825.034,190.68 845.051,143.626 847.243,214.729 862.831,214.729 858.959,118.687 		"/>
		<path fill="#2594DA" d="M921.028,145.537c-18.437-11.063-20.043-13.779-20.043-22.729c0-4.152,1.03-17.695,14.298-17.695
			c7.649,0,12.571,5.365,15.046,16.399l0.295,1.312l14.442-2.225l-0.298-1.478c-3.73-18.417-13.928-28.153-29.485-28.153
			c-16.621,0-29.156,13.689-29.156,31.839c0,18.743,10.417,24.83,23.605,32.538l1.197,0.691
			c11.518,6.661,20.616,11.922,20.616,26.316c0,12.61-5.928,19.844-16.263,19.844c-12.557,0-15.753-7.402-17.528-21.984
			l-0.175-1.443l-14.796,1.985l0.129,1.377c2.175,23.019,12.645,34.207,32.011,34.207c19.122,0,31.479-13.76,31.479-35.056
			C946.403,162.176,935.885,154.414,921.028,145.537z"/>
		<path fill="#2594DA" d="M1035.58,153.742c0-58.248-26.42-62.773-34.519-62.773c-21.617,0-34.522,23.468-34.522,62.773
			c0,58.082,26.423,62.597,34.522,62.597c5.901,0,11.753-2.13,16.627-6.022l6.964,8.391l11.352-9.344l-9.067-10.73
			C1032.75,187.781,1035.58,173.08,1035.58,153.742z M1000.881,105.113c16.795,0,19.304,30.692,19.304,48.989
			c0,12.458-1.247,22.88-3.809,31.749l-11.748-13.925l-11.315,9.54l15.234,18.1c-2.229,1.812-4.869,2.632-8.38,2.632
			c-16.92,0-18.234-36.4-18.234-47.559C981.933,122.238,988.484,105.113,1000.881,105.113z"/>
		<polygon fill="#2594DA" points="1070.573,201.124 1070.573,92.579 1055.715,92.579 1055.715,214.729 1119.571,214.729 
			1119.571,201.124 		"/>
	</g>
	<path fill="#2594DA" d="M221.615,139.814l-32.752-32.752c-0.236-0.239-0.495-0.452-0.742-0.677V74.642
		C188.122,33.485,154.639,0,113.482,0C72.328,0,38.843,33.485,38.843,74.642v31.774c-0.236,0.216-0.48,0.418-0.708,0.646
		L5.383,139.814c-7.178,7.178-7.178,18.858,0,26.041c3.478,3.475,8.102,5.388,13.021,5.388c4.916,0,9.541-1.913,13.016-5.391
		l7.454-7.455v28.507c-0.006,0.202-0.031,0.394-0.031,0.59c0,0.225,0.025,0.441,0.031,0.663v0.099H38.84
		c0,0.898,0.011,1.798,0.034,2.693c1.632,66.709,62.355,113.044,64.937,114.982l5.396,3.744c-2.601-2.602-2.758-16.712-2.48-20.757
		c1.613-23.366,47.534-63.369,66.875-78.229c8.756-6.146,14.057-13.731,14.498-22.058h0.022v-0.475
		c0.008-0.222,0.034-0.438,0.034-0.663c0-0.196-0.025-0.388-0.034-0.59v-28.51l7.458,7.458c3.475,3.478,8.099,5.391,13.015,5.391
		c4.919,0,9.542-1.913,13.023-5.391C228.795,158.673,228.795,146.992,221.615,139.814z M48.571,74.642
		c0-35.794,29.12-64.914,64.911-64.914s64.911,29.12,64.911,64.914v25.816c-12.737-11.618-36.761-19.293-64.897-19.293
		c-28.153,0-52.194,7.688-64.925,19.327V74.642z M178.394,119.507v0.612c-0.034,1.416-0.326,2.84-0.879,4.259
		c-0.801,2.05-2.118,4.087-3.93,6.062c-0.253,0.275-0.545,0.542-0.815,0.814c-1.809,1.801-4.017,3.542-6.61,5.18
		c-0.168,0.107-0.323,0.219-0.495,0.323c-11.34,6.986-29.589,12.048-52.168,12.048c-22.575,0-40.826-5.062-52.164-12.048
		c-0.171-0.104-0.323-0.216-0.494-0.323c-2.593-1.641-4.801-3.379-6.61-5.18c-0.27-0.272-0.562-0.539-0.815-0.814
		c-1.812-1.975-3.129-4.012-3.93-6.062c-0.587-1.509-0.91-3.023-0.91-4.526c0-0.545,0.054-1.09,0.132-1.635
		c0.388-2.714,1.775-5.438,3.978-8.065c1.834-2.188,4.242-4.304,7.214-6.284c11.191-7.461,30.035-12.976,53.599-12.976
		c23.566,0,42.41,5.514,53.604,12.976c2.972,1.98,5.379,4.096,7.214,6.284c2.203,2.626,3.59,5.351,3.978,8.065
		C178.354,118.647,178.379,119.077,178.394,119.507z M25.526,159.959c-1.903,1.901-4.432,2.949-7.123,2.949
		c-2.693,0-5.224-1.048-7.125-2.949c-3.927-3.93-3.927-10.324-0.003-14.251l27.568-27.566v1.71c0,0.194,0.025,0.388,0.031,0.584
		v13.532v12.641L25.526,159.959z M97.184,287.225c-15.113-14.681-39.471-43.041-46.626-78.727c1.888,1.54,3.938,3.018,6.22,4.391
		l0.025,0.018c13.582,8.172,33.771,13.273,56.694,13.273c11.132,0,21.611-1.211,31.01-3.383
		C124.43,240.852,99.344,267.104,97.184,287.225z M178.357,188.632c-1.362,13.645-27.069,27.822-64.86,27.822
		c-37.786,0-63.493-14.178-64.855-27.822c-0.04-0.382-0.068-0.761-0.068-1.138c0-1.668,0.388-3.352,1.113-5.022
		c0.806-1.868,2.037-3.72,3.68-5.512c0.017-0.017,0.031-0.036,0.048-0.056c2.896,2.027,6.188,3.882,9.787,5.567
		c4.981,2.329,10.607,4.292,16.714,5.854c0.388,0.098,0.753,0.21,1.144,0.306c9.768,2.385,20.74,3.728,32.438,3.728
		c11.703,0,22.681-1.343,32.443-3.728c0.368-0.09,0.716-0.196,1.082-0.289c6.129-1.564,11.779-3.537,16.776-5.871
		c3.598-1.686,6.888-3.54,9.787-5.567c0.011,0.011,0.017,0.022,0.028,0.033c1.655,1.801,2.891,3.66,3.7,5.534
		c0.725,1.671,1.109,3.354,1.109,5.022C178.421,187.871,178.396,188.25,178.357,188.632z M178.396,154.13
		c-0.141,3.405-1.798,6.857-4.812,10.133c-1.818,1.969-4.155,3.865-6.908,5.657c-0.34,0.22-0.66,0.444-1.011,0.663
		c-10.217,6.296-26.063,11.015-45.615,11.889h-13.102c-19.549-0.874-35.398-5.593-45.615-11.889c-0.374-0.23-0.713-0.472-1.07-0.705
		c-2.728-1.778-5.042-3.66-6.849-5.615c-3.014-3.275-4.674-6.728-4.815-10.133c-0.005-0.154-0.025-0.306-0.025-0.458
		c0-0.157,0.02-0.309,0.025-0.46c0.079-1.902,0.68-3.815,1.677-5.706c0.233-0.441,0.531-0.874,0.803-1.312
		c0.655-1.051,1.396-2.09,2.334-3.11c0.149,0.104,0.315,0.205,0.466,0.309c6.138,4.2,13.902,7.703,22.864,10.278
		c10.795,3.102,23.302,4.863,36.752,4.863c13.458,0,25.962-1.762,36.758-4.863c8.961-2.576,16.729-6.079,22.863-10.278
		c0.152-0.104,0.318-0.205,0.467-0.309c0.938,1.017,1.674,2.059,2.332,3.104c0.267,0.427,0.556,0.851,0.784,1.281
		c1.011,1.901,1.621,3.829,1.697,5.742c0.008,0.152,0.025,0.303,0.025,0.46C178.421,153.824,178.405,153.976,178.396,154.13z
		 M215.722,159.956c-1.902,1.904-4.433,2.952-7.127,2.952c-2.688,0-5.216-1.048-7.121-2.949l-13.352-13.349v-13.824v-12.349
		c0.008-0.197,0.034-0.391,0.034-0.584c0-0.225-0.025-0.444-0.034-0.663v-0.972v-0.109l27.6,27.6
		C219.649,149.635,219.649,156.029,215.722,159.956z"/>
</g>
</svg>
