<?xml version="1.0" encoding="utf-8"?>
<!-- Generator: Adobe Illustrator 16.0.0, SVG Export Plug-In . SVG Version: 6.00 Build 0)  -->
<!DOCTYPE svg PUBLIC "-//W3C//DTD SVG 1.1//EN" "http://www.w3.org/Graphics/SVG/1.1/DTD/svg11.dtd">
<svg version="1.1" id="Layer_1" xmlns="http://www.w3.org/2000/svg" xmlns:xlink="http://www.w3.org/1999/xlink" x="0px" y="0px"
	 width="841.89px" height="595.28px" viewBox="0 0 841.89 595.28" enable-background="new 0 0 841.89 595.28" xml:space="preserve">
<path fill="#2594DA" d="M598.943,273.231l-53.887-53.887c-0.389-0.393-0.813-0.744-1.221-1.114v-52.228
	c0-67.716-55.089-122.81-122.805-122.81c-67.711,0-122.806,55.094-122.806,122.81v52.279c-0.388,0.356-0.79,0.689-1.165,1.063
	l-53.888,53.887c-11.809,11.809-11.809,31.027,0,42.845c5.722,5.718,13.33,8.865,21.423,8.865c8.089,0,15.699-3.147,21.416-8.869
	l12.265-12.267v46.903c-0.01,0.333-0.051,0.646-0.051,0.971c0,0.369,0.042,0.726,0.051,1.091v0.161h-0.056
	c0,1.479,0.019,2.959,0.056,4.433c2.685,109.758,102.593,185.992,106.841,189.182l8.879,6.161c-4.28-4.28-4.539-27.496-4.081-34.151
	c2.653-38.446,78.208-104.263,110.03-128.713c14.406-10.112,23.128-22.592,23.854-36.291h0.037v-0.781
	c0.014-0.365,0.056-0.722,0.056-1.091c0-0.324-0.042-0.638-0.056-0.971v-46.908l12.271,12.271
	c5.718,5.722,13.325,8.869,21.414,8.869c8.093,0,15.7-3.147,21.427-8.869C610.758,304.258,610.758,285.04,598.943,273.231z
	 M314.231,166.001c0-58.893,47.912-106.804,106.8-106.804S527.83,107.108,527.83,166.001v42.476
	c-20.955-19.117-60.482-31.744-106.776-31.744c-46.321,0-85.876,12.65-106.823,31.799V166.001z M527.83,239.819v1.007
	c-0.055,2.33-0.536,4.673-1.446,7.007c-1.317,3.374-3.485,6.725-6.466,9.974c-0.416,0.453-0.896,0.892-1.341,1.34
	c-2.977,2.962-6.609,5.828-10.876,8.523c-0.277,0.176-0.531,0.36-0.813,0.531c-18.659,11.495-48.684,19.824-85.835,19.824
	c-37.142,0-67.171-8.329-85.825-19.824c-0.282-0.171-0.531-0.355-0.813-0.531c-4.266-2.699-7.899-5.561-10.875-8.523
	c-0.444-0.448-0.925-0.887-1.341-1.34c-2.981-3.25-5.148-6.6-6.466-9.974c-0.966-2.482-1.498-4.973-1.498-7.446
	c0-0.896,0.088-1.793,0.217-2.69c0.638-4.465,2.921-8.948,6.544-13.27c3.018-3.601,6.979-7.081,11.869-10.339
	c18.414-12.276,49.418-21.349,88.187-21.349c38.773,0,69.778,9.073,88.196,21.349c4.891,3.258,8.852,6.739,11.869,10.339
	c3.624,4.321,5.907,8.805,6.545,13.27C527.766,238.404,527.808,239.112,527.83,239.819z M276.315,306.375
	c-3.131,3.129-7.292,4.854-11.719,4.854c-4.43,0-8.594-1.725-11.724-4.854c-6.461-6.466-6.461-16.985-0.004-23.447l45.357-45.355
	v2.815c0,0.319,0.042,0.638,0.051,0.961v22.264v20.799L276.315,306.375z M394.214,515.769
	c-24.866-24.154-64.943-70.817-76.715-129.53c3.106,2.532,6.48,4.964,10.233,7.224l0.042,0.028
	c22.347,13.445,55.565,21.838,93.28,21.838c18.317,0,35.557-1.992,51.022-5.564C439.043,439.469,397.769,482.661,394.214,515.769z
	 M527.771,353.552c-2.242,22.448-44.537,45.775-106.717,45.775c-62.17,0-104.465-23.327-106.707-45.775
	c-0.064-0.629-0.111-1.253-0.111-1.872c0-2.746,0.638-5.514,1.83-8.265c1.327-3.073,3.351-6.119,6.055-9.067
	c0.027-0.028,0.051-0.061,0.078-0.093c4.766,3.337,10.183,6.388,16.103,9.16c8.195,3.832,17.453,7.063,27.5,9.633
	c0.638,0.161,1.239,0.347,1.881,0.504c16.071,3.924,34.124,6.133,53.37,6.133c19.255,0,37.317-2.209,53.379-6.133
	c0.605-0.148,1.179-0.324,1.779-0.477c10.085-2.574,19.38-5.819,27.603-9.66c5.921-2.772,11.333-5.823,16.104-9.16
	c0.018,0.019,0.027,0.037,0.046,0.056c2.722,2.962,4.756,6.022,6.087,9.104c1.192,2.751,1.826,5.519,1.826,8.265
	C527.877,352.299,527.835,352.923,527.771,353.552z M527.835,296.785c-0.231,5.602-2.958,11.282-7.917,16.671
	c-2.99,3.24-6.836,6.359-11.365,9.309c-0.56,0.36-1.087,0.73-1.664,1.091c-16.811,10.357-42.883,18.123-75.052,19.56H410.28
	c-32.165-1.437-58.242-9.202-75.052-19.56c-0.614-0.379-1.174-0.776-1.761-1.16c-4.488-2.926-8.296-6.022-11.269-9.239
	c-4.959-5.39-7.691-11.069-7.922-16.671c-0.009-0.254-0.042-0.504-0.042-0.753c0-0.259,0.032-0.509,0.042-0.758
	c0.129-3.129,1.119-6.276,2.759-9.387c0.384-0.726,0.874-1.438,1.322-2.158c1.077-1.729,2.297-3.439,3.841-5.117
	c0.245,0.171,0.518,0.337,0.768,0.508c10.099,6.91,22.874,12.674,37.618,16.912c17.762,5.103,38.339,8,60.469,8
	c22.144,0,42.716-2.897,60.479-8c14.744-4.238,27.523-10.002,37.618-16.912c0.25-0.171,0.522-0.337,0.768-0.508
	c1.543,1.673,2.754,3.388,3.836,5.107c0.439,0.703,0.915,1.4,1.289,2.107c1.664,3.129,2.667,6.3,2.792,9.447
	c0.014,0.25,0.042,0.5,0.042,0.758C527.877,296.281,527.849,296.53,527.835,296.785z M589.247,306.37
	c-3.129,3.134-7.294,4.858-11.726,4.858c-4.424,0-8.584-1.725-11.717-4.854l-21.969-21.963v-22.745v-20.318
	c0.014-0.323,0.056-0.643,0.056-0.961c0-0.37-0.042-0.73-0.056-1.091v-1.599v-0.18l45.411,45.411
	C595.709,289.39,595.709,299.909,589.247,306.37z"/>
</svg>
