<?xml version="1.0" encoding="utf-8"?>
<!-- Generator: Adobe Illustrator 16.0.0, SVG Export Plug-In . SVG Version: 6.00 Build 0)  -->
<!DOCTYPE svg PUBLIC "-//W3C//DTD SVG 1.1//EN" "http://www.w3.org/Graphics/SVG/1.1/DTD/svg11.dtd">
<svg version="1.1" id="Layer_1" xmlns="http://www.w3.org/2000/svg" xmlns:xlink="http://www.w3.org/1999/xlink" x="0px" y="0px"
	 width="869.748px" height="599.791px" viewBox="0 0 869.748 599.791" enable-background="new 0 0 869.748 599.791"
	 xml:space="preserve">
<g>
	<g>
		<path fill="#2594DA" d="M30.918,498.106H0v97.64h15.106v-40.721h18.902c14.387,0,28.912-9.162,28.912-29.639
			C62.92,508.307,50.954,498.106,30.918,498.106z M15.106,511.938H30.37c11.846,0,16.9,4.295,16.9,14.362
			c0,10.026-5.528,14.895-16.9,14.895H15.106V511.938z"/>
		<polygon fill="#2594DA" points="133.018,537.381 98.495,537.381 98.495,498.106 83.389,498.106 83.389,595.746 98.495,595.746 
			98.495,551.213 133.018,551.213 133.018,595.746 148.124,595.746 148.124,498.106 133.018,498.106 		"/>
		<path fill="#2594DA" d="M198.805,498.106l-30.569,95.072l14.753,5.366l9.046-28.609h31.483l8.859,28.617l14.761-5.374
			l-30.569-95.072H198.805z M219.161,556.105h-22.948l11.476-37.373L219.161,556.105z"/>
		<polygon fill="#2594DA" points="318.336,554.535 319.15,572.894 284.735,498.106 267.249,498.106 267.249,595.746 
			282.351,595.746 282.351,539.5 281.537,520.959 315.953,595.746 333.438,595.746 333.438,498.106 318.328,498.106 		"/>
		<polygon fill="#2594DA" points="353.907,511.938 380.09,511.938 380.09,595.746 395.192,595.746 395.192,511.938 420.819,511.938 
			420.819,498.106 353.907,498.106 		"/>
		<path fill="#2594DA" d="M476.392,496.47c-8.24,0-35.097,3.647-35.097,50.548c0,46.734,26.856,50.364,35.097,50.364
			c32.555,0,35.089-38.544,35.089-50.364C511.48,500.117,484.624,496.47,476.392,496.47z M476.392,583.012
			c-16.921,0-19.446-22.554-19.446-35.994c0-16.498,3.373-36.168,19.446-36.168c16.065,0,19.438,19.67,19.438,36.168
			C495.83,560.458,493.305,583.012,476.392,583.012z"/>
		<polygon fill="#2594DA" points="586.434,498.106 570.318,536.85 554.202,498.106 535.828,498.106 531.891,595.746 
			547.731,595.746 549.966,523.467 570.318,571.299 590.67,523.467 592.896,595.746 608.745,595.746 604.808,498.106 		"/>
		<path fill="#2594DA" d="M667.907,525.402c-18.74-11.238-20.377-14.005-20.377-23.102c0-4.219,1.047-17.992,14.537-17.992
			c7.775,0,12.776,5.458,15.293,16.672l0.299,1.338l14.688-2.26l-0.308-1.504c-3.788-18.724-14.155-28.625-29.972-28.625
			c-16.896,0-29.639,13.922-29.639,32.371c0,19.057,10.583,25.245,23.99,33.078l1.221,0.707
			c11.705,6.77,20.959,12.119,20.959,26.748c0,12.817-6.022,20.178-16.531,20.178c-12.768,0-16.016-7.526-17.818-22.354l-0.183-1.47
			l-15.035,2.026l0.124,1.396c2.21,23.4,12.859,34.772,32.547,34.772c19.438,0,31.998-13.988,31.998-35.636
			C693.7,542.324,683.009,534.433,667.907,525.402z"/>
		<path fill="#2594DA" d="M784.361,533.751c0-59.22-26.856-63.821-35.088-63.821c-21.98,0-35.097,23.857-35.097,63.821
			c0,59.046,26.856,63.631,35.097,63.631c5.997,0,11.945-2.159,16.896-6.122l7.085,8.531l11.539-9.494l-9.221-10.916
			C781.487,568.35,784.361,553.405,784.361,533.751z M749.082,484.309c17.079,0,19.63,31.209,19.63,49.809
			c0,12.659-1.271,23.259-3.871,32.271l-11.945-14.154l-11.506,9.702l15.493,18.399c-2.269,1.836-4.951,2.676-8.523,2.676
			c-17.195,0-18.532-37.008-18.532-48.355C729.827,501.72,736.48,484.309,749.082,484.309z"/>
		<polygon fill="#2594DA" points="819.94,581.914 819.94,471.566 804.83,471.566 804.83,595.746 869.748,595.746 869.748,581.914 		
			"/>
	</g>
	<path fill="#2594DA" d="M594.724,206.722l-48.421-48.426c-0.349-0.353-0.731-0.668-1.097-1.001v-46.934
		C545.206,49.509,495.697,0,434.849,0S324.492,49.509,324.492,110.361v46.979c-0.349,0.32-0.715,0.619-1.047,0.955l-48.429,48.426
		c-10.608,10.611-10.608,27.882,0,38.502c5.142,5.138,11.979,7.966,19.255,7.966c7.269,0,14.105-2.828,19.247-7.97l11.015-11.023
		v42.149c-0.008,0.299-0.042,0.581-0.042,0.872c0,0.332,0.033,0.652,0.042,0.98v0.146h-0.05c0,1.328,0.017,2.658,0.05,3.982
		c2.417,98.628,92.198,167.135,96.011,170.001l7.982,5.54c-3.846-3.846-4.079-24.713-3.671-30.693
		c2.384-34.549,70.285-93.693,98.877-115.665c12.95-9.084,20.783-20.298,21.439-32.608h0.033v-0.702
		c0.009-0.328,0.05-0.648,0.05-0.98c0-0.291-0.041-0.573-0.05-0.872v-42.153l11.023,11.027c5.142,5.142,11.979,7.97,19.247,7.97
		s14.105-2.828,19.255-7.97C605.34,234.604,605.34,217.333,594.724,206.722z M338.871,110.361c0-52.923,43.055-95.978,95.978-95.978
		c52.915,0,95.969,43.055,95.969,95.978v38.17c-18.831-17.179-54.352-28.525-95.953-28.525c-41.626,0-77.171,11.367-95.995,28.575
		V110.361z M530.818,176.696v0.905c-0.05,2.094-0.481,4.199-1.296,6.297c-1.188,3.031-3.131,6.043-5.814,8.963
		c-0.374,0.407-0.806,0.802-1.205,1.204c-2.674,2.663-5.939,5.237-9.769,7.659c-0.249,0.158-0.481,0.324-0.73,0.478
		c-16.772,10.33-43.753,17.814-77.138,17.814c-33.377,0-60.358-7.484-77.121-17.814c-0.258-0.153-0.482-0.319-0.731-0.478
		c-3.838-2.426-7.103-4.996-9.777-7.659c-0.399-0.402-0.831-0.797-1.205-1.204c-2.675-2.92-4.627-5.932-5.807-8.963
		c-0.872-2.23-1.346-4.47-1.346-6.691c0-0.806,0.075-1.611,0.191-2.418c0.573-4.012,2.625-8.041,5.882-11.924
		c2.716-3.235,6.271-6.363,10.666-9.291c16.547-11.032,44.408-19.186,79.248-19.186c34.847,0,62.708,8.153,79.256,19.186
		c4.395,2.928,7.958,6.056,10.666,9.291c3.256,3.883,5.308,7.912,5.881,11.924C530.761,175.425,530.802,176.061,530.818,176.696z
		 M304.805,236.506c-2.816,2.812-6.554,4.361-10.533,4.361s-7.726-1.55-10.533-4.361c-5.807-5.811-5.807-15.264-0.008-21.07
		l40.762-40.758v2.529c0,0.286,0.033,0.573,0.042,0.863v20.008v18.69L304.805,236.506z M410.751,424.674
		c-22.346-21.706-58.364-63.64-68.939-116.405c2.791,2.276,5.823,4.461,9.196,6.496l0.033,0.025
		c20.086,12.078,49.933,19.62,83.825,19.62c16.464,0,31.957-1.785,45.854-5C451.031,356.108,413.94,394.918,410.751,424.674z
		 M530.769,278.9c-2.019,20.173-40.022,41.131-95.903,41.131c-55.864,0-93.876-20.958-95.886-41.131
		c-0.059-0.565-0.1-1.126-0.1-1.683c0-2.468,0.573-4.955,1.645-7.427c1.188-2.762,3.007-5.499,5.441-8.148
		c0.025-0.025,0.042-0.055,0.066-0.083c4.287,2.999,9.154,5.739,14.471,8.231c7.368,3.443,15.683,6.347,24.713,8.656
		c0.573,0.146,1.113,0.312,1.695,0.453c14.438,3.525,30.661,5.512,47.956,5.512c17.303,0,33.535-1.986,47.972-5.512
		c0.54-0.133,1.055-0.291,1.595-0.428c9.063-2.314,17.42-5.229,24.805-8.682c5.324-2.492,10.185-5.232,14.471-8.231
		c0.017,0.017,0.025,0.033,0.041,0.05c2.451,2.662,4.278,5.412,5.475,8.182c1.071,2.472,1.637,4.959,1.637,7.427
		C530.86,277.774,530.827,278.335,530.769,278.9z M530.827,227.887c-0.208,5.034-2.658,10.139-7.119,14.982
		c-2.684,2.911-6.139,5.715-10.209,8.365c-0.507,0.323-0.98,0.656-1.495,0.979c-15.11,9.308-38.536,16.286-67.444,17.577h-19.371
		c-28.908-1.291-52.342-8.27-67.444-17.577c-0.557-0.341-1.055-0.698-1.587-1.042c-4.029-2.63-7.451-5.412-10.126-8.303
		c-4.453-4.844-6.911-9.948-7.119-14.982c-0.008-0.228-0.033-0.452-0.033-0.677c0-0.232,0.025-0.456,0.033-0.681
		c0.117-2.813,1.005-5.641,2.484-8.436c0.341-0.652,0.781-1.292,1.188-1.939c0.963-1.554,2.06-3.091,3.447-4.599
		c0.224,0.154,0.465,0.304,0.689,0.457c9.08,6.21,20.56,11.389,33.809,15.197c15.958,4.586,34.449,7.19,54.335,7.19
		c19.903,0,38.386-2.604,54.352-7.19c13.249-3.809,24.729-8.987,33.801-15.197c0.225-0.153,0.474-0.303,0.689-0.457
		c1.387,1.504,2.476,3.045,3.447,4.59c0.398,0.631,0.822,1.259,1.163,1.894c1.495,2.813,2.393,5.661,2.509,8.49
		c0.008,0.225,0.033,0.448,0.033,0.681C530.86,227.435,530.835,227.659,530.827,227.887z M586.01,236.502
		c-2.808,2.815-6.554,4.365-10.533,4.365s-7.717-1.55-10.533-4.361l-19.737-19.737v-20.439V178.07c0.009-0.29,0.05-0.577,0.05-0.863
		c0-0.332-0.041-0.656-0.05-0.98v-1.438v-0.161l40.804,40.808C591.816,221.242,591.816,230.695,586.01,236.502z"/>
</g>
</svg>
